<?xml version="1.0" standalone="no"?>
<!DOCTYPE svg PUBLIC "-//W3C//DTD SVG 20010904//EN" "http://www.w3.org/TR/2001/REC-SVG-20010904/DTD/svg10.dtd">
<svg xmlns="http://www.w3.org/2000/svg" version="1.0" width="348.000000pt" height="348.000000pt" viewBox="0 0 348.000000 348.000000" preserveAspectRatio="xMidYMid meet">
<metadata>
Created by potrace 1.16, written by Peter Selinger 2001-2019
<meta name="Producer" content="Online-Convert"/></metadata>
<g transform="translate(0.000000,348.000000) scale(0.100000,-0.100000)" fill="#1266f1" stroke="none">
<path d="M1290 3039 c-715 -399 -858 -480 -880 -501 -48 -45 -47 -40 -48 -788 0 -391 4 -721 9 -740 11 -47 45 -76 154 -137 154 -85 671 -375 870 -488 289 -164 291 -165 345 -165 54 0 56 1 345 165 105 59 287 161 405 227 403 225 535 301 569 326 63 47 61 21 61 802 0 763 1 749 -51 797 -28 25 -7 13 -674 386 -652 365 -598 337 -659 337 -48 0 -77 -14 -446 -221z m600 -294 c228 -34 422 -135 581 -302 73 -77 139 -162 139 -181 0 -10 -398 -241 -430 -249 -11 -3 -20 -1 -20 4 0 21 -87 108 -144 145 -84 54 -169 78 -276 78 -205 0 -368 -103 -458 -290 -32 -68 -36 -84 -40 -181 -7 -166 34 -277 142 -385 196 -196 510 -199 704 -7 32 32 66 69 75 82 l16 23 203 -110 c112 -61 212 -117 222 -125 18 -13 17 -17 -24 -78 -56 -82 -187 -213 -269 -269 -194 -131 -450 -196 -667 -170 -256 31 -447 121 -620 294 -163 163 -256 345 -289 566 -19 121 -19 182 0 300 38 235 135 421 304 583 235 224 536 320 851 272z"/>
</g>
</svg>
